<svg xmlns="http://www.w3.org/2000/svg" viewBox="0 0 320 320" role="img" aria-labelledby="title">
  <title>超星 Logo Mark</title>
  <rect width="320" height="320" rx="34" fill="#f71c23"/>
  <path fill="#fff" d="M14 292c8-73 37-129 88-178 38-36 88-71 151-105-55 46-95 92-120 142-21 42-34 89-38 141H14z"/>
  <path fill="#fff" d="M63 292c6-58 29-103 68-144 30-31 67-61 115-90-40 37-68 76-87 117-16 35-25 74-28 117H63z"/>
  <path fill="#fff" d="M118 292c5-45 20-83 46-116 20-26 47-52 86-80-28 31-48 64-61 100-10 29-16 61-18 96H118z"/>
  <path fill="#fff" d="M181 292c3-36 12-66 29-92 12-19 28-39 51-60-15 24-26 50-33 79-6 22-9 47-10 73h-37z"/>
  <path fill="#fff" d="M247 33l18 36 40 4-29 25 8 39-37-21-37 21 9-39-30-25 41-4 17-36z"/>
</svg>
