<svg xmlns="http://www.w3.org/2000/svg" viewBox="0 0 128 128">
  <rect width="128" height="128" rx="22" fill="#f82027"/>
  <path fill="#fff" d="M14 105c3-27 14-49 32-67 16-16 34-28 55-39-23 20-39 41-48 65-5 13-8 27-10 41H14z"/>
  <path fill="#fff" d="M30 105c3-22 11-40 24-55 12-14 28-27 47-38-16 16-27 33-34 51-5 14-7 28-8 42H30z"/>
  <path fill="#fff" d="M50 105c1-18 5-34 13-48 8-14 19-26 34-38-10 13-17 28-21 43-3 13-5 27-5 43H50z"/>
  <path fill="#fff" d="M88 16l7.7 15.9 17.6 2.1-12.8 10.9 3.8 17.2L88 53.1 72 62.1l3.8-17.2L63 34l17.4-2.1L88 16z"/>
</svg>
